<svg id="Layer_1" data-name="Layer 1" xmlns="http://www.w3.org/2000/svg" viewBox="0 0 108.72 80.65"><title>flip-arrow</title><path d="M90.38,30.3a77.54,77.54,0,0,1,28.79,20.36l.66-2.5c-9.56,3.67-20.41,2.24-29.22,8-1.61,1.05-.11,3.65,1.51,2.59,8.54-5.61,19.22-4.16,28.51-7.73a1.52,1.52,0,0,0,.66-2.51A80.49,80.49,0,0,0,91.18,27.41c-1.79-.73-2.57,2.18-.8,2.89Z" transform="translate(-13 -27.29)"/><path d="M105.59,42.35c-22.26-2.3-45.87-.09-64.83,12.78-17,11.55-27,30.79-27.76,51.37-.07,1.93,2.93,1.93,3,0,.75-20.64,11.28-39.64,28.85-50.45,18.16-11.17,40-12.85,60.74-10.7,1.92.2,1.9-2.8,0-3Z" transform="translate(-13 -27.29)"/></svg>